<svg class="img-fluid" id="outputsvg" xmlns="http://www.w3.org/2000/svg" style="transform: none; transform-origin: 50% 50% 0px; cursor: move; max-height: none; transition: none;" width="2048" height="2048" viewBox="0 0 20480 20480"><g id="l3D69QsXHSW5AI7TOE4gJny" fill="rgb(236,232,223)" style="transform: none;"><g style="transform: none;"><path id="p1165uHPhB" d="M0 10240 l0 -10240 10240 0 10240 0 0 10240 0 10240 -10240 0 -10240 0 0 -10240z m3730 1591 c220 -49 315 -90 462 -198 143 -107 206 -163 301 -273 104 -121 144 -176 196 -274 174 -330 209 -687 102 -1053 -97 -334 -269 -631 -1235 -2131 -65 -101 -123 -181 -128 -180 -6 2 -55 73 -110 158 -54 85 -131 205 -171 265 -159 246 -531 842 -680 1090 -218 362 -355 653 -397 845 -39 176 -43 212 -43 370 0 226 37 378 145 594 221 444 601 735 1053 807 95 15 401 3 505 -20z m9018 -611 c236 -26 475 -110 654 -231 88 -60 234 -204 301 -297 191 -266 287 -622 257 -951 -26 -284 -90 -479 -225 -688 -298 -458 -919 -669 -1508 -513 -98 26 -138 42 -260 103 -563 282 -831 993 -626 1662 153 500 555 838 1084 910 116 16 202 18 323 5z m4877 -5 c181 -26 311 -74 441 -161 283 -190 396 -479 299 -765 -30 -91 -76 -165 -149 -245 -107 -118 -199 -177 -582 -376 -273 -142 -345 -187 -425 -269 -72 -72 -106 -143 -127 -259 -29 -166 7 -307 103 -403 88 -89 235 -136 384 -124 304 25 473 185 561 532 13 50 26 93 29 96 3 4 23 9 44 12 l37 6 0 -309 c0 -284 -1 -310 -17 -319 -10 -5 -66 -25 -124 -44 -287 -96 -594 -126 -784 -77 -284 72 -484 247 -573 499 -23 66 -26 92 -26 196 0 105 3 129 26 193 40 109 83 177 167 265 90 94 219 183 388 267 68 33 125 60 129 60 4 0 59 26 124 59 223 111 352 218 414 341 47 94 60 163 54 291 -7 135 -35 205 -114 279 -100 95 -210 129 -414 129 -261 1 -417 -69 -555 -249 -78 -101 -165 -294 -210 -466 -2 -7 -20 -14 -40 -16 l-37 -4 7 275 c4 152 10 316 14 364 l6 89 55 19 c105 37 282 78 430 99 231 33 321 36 465 15z m-10410 -56 c543 -60 932 -297 1162 -709 40 -72 100 -232 117 -317 32 -151 40 -267 27 -391 -44 -426 -236 -738 -584 -951 -118 -73 -306 -148 -457 -184 -210 -51 -299 -56 -958 -61 -529 -3 -603 -2 -598 11 3 8 6 25 6 38 0 20 7 24 48 30 134 19 218 61 249 125 l22 45 1 1089 c1 1053 1 1090 -17 1114 -43 57 -128 92 -226 92 l-48 0 3 38 3 37 395 6 c447 6 723 3 855 -12z m2623 -31 c3 -38 3 -38 -35 -39 -66 0 -177 -24 -226 -48 -85 -41 -82 -19 -85 -575 l-3 -488 133 5 c155 5 201 19 271 78 69 59 152 189 297 464 195 370 329 576 404 620 43 25 44 25 309 25 146 0 268 -3 271 -8 2 -4 7 -23 11 -43 l7 -36 -57 -7 c-77 -9 -144 -45 -218 -119 -79 -78 -159 -193 -330 -477 -201 -334 -305 -463 -414 -516 -48 -24 -53 -29 -53 -59 0 -32 2 -34 53 -46 65 -15 204 -71 266 -106 197 -113 311 -275 340 -485 23 -169 -52 -371 -185 -499 -132 -125 -343 -204 -614 -230 -89 -8 -198 -9 -380 -3 -140 5 -389 8 -553 6 l-298 -3 3 38 3 38 71 12 c154 25 223 62 246 130 9 30 13 279 16 1121 3 1200 7 1130 -61 1170 -37 22 -132 42 -195 42 -41 0 -44 2 -38 23 3 12 6 30 6 40 0 16 29 17 518 15 l517 -3 3 -37z m5552 2 c0 -40 0 -40 -37 -40 -47 0 -205 -25 -255 -40 -21 -6 -50 -21 -64 -33 -23 -20 -27 -32 -34 -127 -5 -58 -9 -266 -10 -462 l0 -356 243 1 c173 2 258 -2 297 -11 246 -60 365 -119 498 -246 165 -157 242 -337 242 -559 0 -185 -56 -324 -180 -447 -137 -137 -351 -219 -645 -249 -55 -6 -346 -12 -648 -14 l-547 -4 6 36 c8 41 18 51 55 51 39 0 129 29 175 56 60 34 81 76 89 175 10 131 14 2038 4 2094 -15 87 -100 135 -237 135 l-42 0 0 40 0 40 545 0 545 0 0 -40z"></path><path id="pDWeicLnB" d="M12540 11083 c-322 -54 -537 -240 -670 -579 -63 -160 -84 -249 -105 -449 -30 -272 -9 -582 54 -797 50 -171 138 -324 251 -436 80 -78 153 -125 253 -161 64 -22 91 -26 247 -29 178 -4 188 -3 315 40 177 60 331 211 444 437 124 247 177 573 153 943 -26 392 -119 637 -316 833 -103 103 -186 151 -321 185 -76 19 -231 25 -305 13z"></path><path id="p146a11V6c" d="M6855 11031 c-80 -12 -133 -30 -162 -55 l-28 -24 0 -1129 0 -1128 245 -3 c241 -3 288 1 415 34 123 31 222 80 334 164 228 172 360 432 402 790 15 130 7 399 -16 525 -78 438 -330 731 -697 811 -81 18 -408 28 -493 15z"></path><path id="pEQRlzUZg" d="M9488 9293 c-2 -452 0 -571 10 -583 10 -12 49 -16 200 -18 160 -3 200 -1 280 17 197 43 296 137 338 321 21 93 15 355 -10 443 -50 179 -160 298 -313 341 -84 24 -174 35 -340 41 l-162 6 -3 -568z"></path><path id="pQUQZEPtj" d="M15145 9974 c-16 -2 -58 -7 -92 -10 l-63 -6 0 -623 0 -624 38 -8 c20 -4 109 -8 197 -8 128 0 173 4 225 19 197 58 307 167 361 361 19 68 23 104 22 235 0 182 -16 270 -68 376 -91 186 -242 277 -476 287 -63 3 -127 3 -144 1z"></path></g></g><g id="l3lcKVIO1r1HBJwDpe5fHyk" fill="rgb(15,40,58)" style="transform: none;"><g style="transform: none;"><path id="pfJbuAhwz" d="M3240 11884 c-131 -16 -179 -26 -276 -59 -453 -152 -834 -596 -951 -1108 -24 -105 -23 -431 1 -547 30 -143 33 -152 64 -245 82 -246 204 -474 567 -1060 164 -264 376 -601 474 -753 47 -73 136 -209 196 -302 61 -94 113 -169 117 -167 8 2 152 225 553 852 484 759 682 1098 776 1332 129 320 156 647 82 963 -33 143 -123 344 -202 455 -58 81 -196 236 -258 291 -94 82 -260 201 -320 229 -135 65 -345 113 -518 121 -66 2 -138 6 -160 8 -22 2 -87 -3 -145 -10z"></path><path id="p1AaBTLLZR" d="M12395 11245 c-529 -72 -931 -410 -1084 -910 -114 -373 -89 -800 69 -1141 155 -336 457 -589 817 -684 154 -41 243 -52 418 -52 228 0 397 31 581 107 354 147 598 408 719 769 133 397 101 884 -81 1226 -93 174 -254 358 -402 459 -280 189 -677 276 -1037 226z m420 -205 c135 -34 218 -82 321 -185 192 -191 289 -440 316 -813 24 -333 -32 -663 -153 -903 -113 -226 -267 -377 -444 -437 -127 -42 -139 -44 -286 -40 -161 5 -237 24 -344 89 -123 73 -254 233 -323 392 -61 141 -85 242 -107 447 -19 168 -19 269 0 435 21 200 42 289 105 449 102 261 266 444 470 524 158 62 308 76 445 42z"></path><path id="pf3tbaP9W" d="M17275 11249 c-241 -29 -436 -69 -575 -118 l-55 -19 -6 -89 c-4 -48 -10 -227 -14 -397 l-8 -309 64 7 c72 9 79 11 79 33 0 31 62 200 108 291 139 284 333 412 622 411 172 0 289 -39 384 -129 72 -68 105 -142 113 -252 13 -196 -75 -353 -276 -490 -65 -44 -297 -168 -315 -168 -4 0 -61 -27 -129 -60 -169 -84 -298 -173 -388 -267 -83 -87 -127 -156 -167 -265 -24 -67 -27 -85 -27 -223 0 -137 3 -156 27 -226 89 -253 288 -426 573 -500 77 -20 113 -23 250 -22 155 1 235 10 414 49 81 17 299 88 312 101 8 8 15 681 7 688 -2 1 -34 -2 -72 -9 l-69 -11 -27 -100 c-90 -335 -230 -481 -501 -525 -60 -10 -92 -10 -145 0 -246 42 -385 237 -339 475 20 105 55 174 124 244 80 82 152 127 425 269 383 199 475 258 582 376 110 120 163 237 183 404 32 258 -91 503 -333 666 -130 87 -260 135 -441 161 -108 16 -268 17 -380 4z"></path><path id="p10P1N8SY4" d="M6718 11205 c-3 -3 -179 -6 -392 -6 -212 -1 -388 -4 -390 -8 -2 -3 -6 -33 -7 -66 l-3 -60 65 -6 c117 -11 189 -44 219 -100 7 -12 10 -387 10 -1076 l0 -1058 -23 -45 c-31 -64 -115 -106 -248 -125 -46 -7 -47 -7 -53 -52 -3 -25 -6 -56 -6 -69 l0 -24 638 5 c350 3 675 10 722 16 156 19 276 45 398 85 463 155 761 458 866 880 118 477 -5 959 -328 1279 -237 235 -540 369 -941 414 -103 12 -518 24 -527 16z m600 -219 c260 -56 464 -221 595 -481 126 -251 161 -655 86 -985 -88 -387 -353 -674 -704 -764 -125 -33 -175 -37 -385 -34 l-215 3 0 1098 0 1099 28 24 c29 25 82 43 162 55 79 12 352 2 433 -15z"></path><path id="p12btYd7sf" d="M8767 11192 c-2 -4 -4 -35 -6 -69 l-2 -63 44 0 c62 0 157 -21 194 -42 68 -40 64 27 61 -1140 -3 -817 -7 -1061 -16 -1091 -23 -68 -92 -105 -246 -130 l-71 -12 -5 -63 c-3 -35 -1 -66 3 -69 4 -3 139 -3 300 -1 161 1 420 -1 577 -6 206 -6 320 -5 410 3 481 46 742 243 800 606 30 188 -46 422 -177 546 -109 103 -265 185 -438 231 l-49 13 55 28 c111 54 214 181 416 517 171 284 251 399 330 477 76 75 143 111 223 120 54 5 59 8 55 27 -2 12 -7 42 -10 68 -4 32 -11 48 -23 52 -9 2 -145 5 -301 5 l-284 1 -42 -25 c-76 -44 -210 -249 -405 -620 -145 -275 -228 -405 -297 -464 -64 -54 -118 -72 -241 -78 l-103 -6 3 459 c3 522 1 504 85 545 49 24 160 48 226 48 l38 1 -3 68 -3 67 -547 2 c-301 2 -549 -1 -551 -5z m1083 -1383 c150 -25 236 -65 308 -144 92 -100 132 -218 139 -406 12 -310 -90 -463 -349 -520 -78 -17 -119 -20 -251 -17 -122 3 -160 7 -170 18 -9 12 -11 134 -9 551 l2 537 133 -5 c72 -2 161 -9 197 -14z"></path><path id="pq7jeTV4b" d="M14270 11166 c0 -17 -3 -48 -6 -68 l-7 -38 51 0 c114 0 211 -41 234 -98 12 -30 14 -1955 2 -2081 -8 -90 -31 -133 -88 -165 -46 -27 -136 -56 -175 -56 -42 0 -51 -13 -58 -83 l-6 -66 579 5 c318 3 624 9 679 15 195 20 328 55 475 127 115 57 227 161 278 259 87 166 100 426 30 628 -82 237 -294 430 -558 508 -170 50 -184 52 -438 52 l-242 -1 0 323 c1 178 5 372 10 430 8 97 11 110 34 129 34 30 109 50 236 65 58 6 110 12 115 14 6 1 8 28 5 66 l-5 64 -572 1 -573 1 0 -31z m1173 -1251 c133 -45 229 -130 292 -259 49 -99 68 -196 68 -346 1 -309 -122 -490 -383 -566 -69 -20 -286 -26 -362 -11 l-38 8 0 594 0 593 63 6 c34 3 76 8 92 10 64 7 202 -8 268 -29z"></path></g></g><g id="l4uGkYyPJ8gheHPrdvC9Z3V" fill="rgb(0,0,2)" style="transform: none;"><g style="transform: none;"><path id="p482iIKMN" d="M3215 11884 c-308 -47 -541 -165 -764 -386 -104 -103 -138 -144 -128 -154 2 -3 49 41 103 96 83 86 241 220 258 220 3 0 33 18 67 40 34 22 67 40 73 40 6 0 27 9 47 19 20 11 89 36 155 57 l119 38 229 3 c196 3 246 1 349 -17 126 -21 274 -66 339 -103 21 -11 41 -17 45 -13 10 9 -34 46 -54 46 -8 0 -27 7 -41 15 -36 19 -177 60 -282 81 -83 16 -442 29 -515 18z"></path><path id="p14kVbh4n8" d="M4387 11514 c-10 -10 3 -32 29 -49 38 -25 50 -7 18 26 -28 30 -36 33 -47 23z"></path><path id="pVxvGBuIB" d="M4456 11441 c-7 -10 41 -57 50 -48 7 6 -27 56 -38 57 -4 0 -9 -4 -12 -9z"></path><path id="pTSNcxbL" d="M4507 11384 c-3 -4 12 -27 34 -53 23 -25 47 -58 55 -73 8 -16 18 -28 23 -28 10 0 98 -156 129 -230 131 -309 145 -706 36 -1035 -57 -173 -169 -404 -301 -624 -25 -41 -53 -88 -63 -105 -9 -17 -48 -80 -85 -141 -37 -60 -88 -144 -113 -185 -25 -41 -63 -102 -86 -135 -22 -33 -39 -62 -39 -65 1 -3 -6 -14 -16 -25 -10 -11 -28 -38 -41 -60 -31 -52 -70 -113 -166 -260 -43 -66 -87 -136 -97 -155 -11 -19 -22 -37 -26 -40 -3 -3 -12 -14 -19 -25 -7 -11 -25 -39 -40 -63 -15 -24 -67 -105 -117 -180 -49 -75 -99 -155 -110 -176 -11 -22 -25 -41 -30 -42 -6 -2 -28 26 -50 61 -22 36 -46 65 -53 65 -7 0 -10 4 -7 10 9 14 -13 50 -31 50 -8 0 -13 4 -10 9 7 11 -16 53 -119 209 -44 67 -86 122 -93 122 -7 0 -10 5 -7 10 8 13 -76 150 -93 150 -7 0 -10 4 -7 10 9 14 -13 50 -31 50 -8 0 -13 4 -10 9 9 14 -5 41 -21 41 -8 0 -12 4 -8 9 7 13 -47 100 -63 101 -7 0 -10 5 -6 11 3 6 -3 24 -15 40 -11 15 -21 32 -21 37 0 5 -15 25 -34 45 -18 20 -31 38 -28 41 8 9 -61 116 -76 116 -7 0 -10 4 -7 10 8 13 -26 70 -42 70 -7 0 -10 6 -8 13 3 6 -15 42 -39 79 -24 37 -45 70 -47 75 -20 45 -65 113 -76 113 -7 0 -13 9 -13 20 0 28 -52 120 -68 120 -7 0 -11 4 -7 9 8 14 -16 61 -32 61 -8 0 -11 5 -7 12 4 6 1 16 -7 22 -8 6 -14 16 -15 21 -3 29 -18 55 -31 55 -9 0 -13 6 -9 15 3 8 -1 18 -8 22 -7 5 -16 22 -19 38 -3 17 -23 68 -45 115 -41 87 -122 328 -122 361 0 11 -4 19 -10 19 -5 0 -9 10 -9 23 2 51 -14 202 -23 208 -9 6 -4 142 8 212 8 45 -11 51 -20 6 -9 -46 -7 -214 4 -294 22 -157 33 -217 47 -255 3 -8 8 -23 10 -34 25 -128 184 -465 343 -726 5 -8 81 -134 170 -280 89 -146 210 -341 269 -435 206 -327 253 -401 318 -500 35 -55 111 -172 168 -259 l103 -159 36 49 c19 27 36 54 36 60 0 6 9 19 20 29 11 10 20 22 20 27 0 5 5 14 10 21 6 7 34 48 61 92 28 44 70 109 94 145 94 145 120 186 133 210 7 14 24 39 38 57 13 17 24 34 24 36 0 3 22 38 49 79 106 160 231 357 231 364 0 2 5 10 10 17 14 16 97 146 141 220 42 73 48 82 82 134 15 24 27 45 27 48 0 4 14 26 30 50 17 24 30 46 30 50 0 3 11 22 24 43 51 78 180 328 229 442 155 361 172 773 47 1122 -56 155 -135 293 -234 408 -42 49 -49 54 -59 44z"></path><path id="pHdadNaeO" d="M2245 11248 c-77 -118 -85 -133 -138 -248 -27 -57 -77 -208 -83 -248 -3 -20 -9 -53 -15 -72 -14 -54 -9 -70 7 -25 12 31 48 153 68 230 1 6 11 28 21 50 9 22 17 50 16 63 0 12 4 22 9 22 11 0 60 92 60 114 0 7 6 16 13 19 6 3 23 27 37 53 14 27 28 51 33 52 4 2 7 8 7 14 0 6 7 16 16 23 9 6 15 19 13 29 -3 11 -25 -14 -64 -76z"></path><path id="pbpkQp3zB" d="M12420 11249 c-313 -36 -598 -174 -806 -390 -217 -227 -339 -519 -365 -872 -9 -127 -7 -292 6 -351 2 -11 6 -40 9 -62 10 -84 60 -252 105 -354 65 -145 148 -268 261 -381 172 -173 375 -284 630 -343 290 -68 652 -46 895 54 303 124 473 262 637 516 94 146 171 380 193 582 7 67 7 340 0 412 -22 225 -117 474 -252 661 -48 68 -169 194 -243 254 -257 209 -683 318 -1070 274z m280 -27 c0 -4 28 -6 63 -4 103 6 345 -57 495 -130 82 -39 201 -118 256 -168 23 -21 58 -52 79 -70 20 -18 37 -38 37 -44 0 -7 13 -25 30 -41 16 -15 27 -32 24 -37 -3 -4 1 -8 8 -8 17 -1 51 -47 43 -60 -3 -6 0 -10 8 -10 17 0 101 -155 92 -170 -3 -6 -1 -10 5 -10 6 0 8 -4 5 -10 -3 -5 -2 -10 3 -10 17 0 73 -171 94 -285 27 -150 30 -468 5 -602 -21 -110 -73 -289 -93 -320 -8 -13 -12 -23 -8 -23 9 0 -85 -170 -119 -215 -129 -167 -253 -274 -420 -361 -118 -61 -170 -82 -277 -109 -36 -9 -72 -18 -80 -22 -17 -6 -22 -7 -140 -17 -47 -4 -92 -10 -100 -12 -26 -9 -190 -9 -190 -1 0 5 -17 8 -37 6 -21 -1 -45 1 -53 4 -8 3 -44 8 -80 12 -119 12 -258 55 -378 117 -41 21 -80 38 -87 38 -8 0 -25 11 -39 25 -14 14 -32 25 -40 25 -8 0 -19 6 -23 13 -4 6 -33 33 -63 58 -98 83 -135 123 -193 208 -31 46 -57 87 -57 92 0 5 -7 9 -16 9 -8 0 -13 4 -10 9 3 5 -16 55 -42 112 -27 57 -54 123 -61 147 -6 23 -16 42 -21 42 -5 0 -8 15 -8 33 1 17 -7 68 -16 112 -18 79 -38 455 -25 455 3 0 9 35 13 78 3 42 15 110 26 151 10 41 17 78 14 83 -3 4 -1 8 4 8 10 0 37 97 34 121 -2 9 4 19 12 22 9 4 12 14 9 26 -3 12 -1 21 6 21 6 0 11 7 11 14 0 8 11 27 25 42 14 15 25 35 25 45 0 11 4 19 8 19 4 0 16 15 26 33 53 90 214 256 314 322 99 66 106 70 167 102 125 65 311 119 450 133 112 10 285 12 285 2z"></path><path id="pI8oICqyE" d="M12557 11074 c-3 -3 -27 -8 -53 -10 -25 -2 -52 -8 -59 -14 -6 -5 -15 -7 -18 -4 -4 4 -18 -1 -32 -10 -15 -10 -36 -19 -48 -22 -33 -6 -136 -73 -204 -132 -176 -153 -313 -436 -364 -752 -12 -74 -27 -550 -18 -550 4 0 10 -30 14 -67 18 -179 94 -391 191 -537 21 -32 44 -66 49 -75 6 -9 35 -41 64 -71 80 -82 200 -147 336 -182 68 -18 99 -20 210 -15 132 5 186 18 298 67 86 38 267 188 267 222 0 4 8 16 18 26 37 40 56 68 93 136 46 85 112 253 104 266 -3 4 0 10 6 12 6 2 12 27 12 56 0 29 5 52 9 52 5 0 6 5 3 10 -3 6 -1 10 6 10 8 0 10 12 5 40 -4 27 -3 40 5 40 6 0 9 9 6 20 -3 11 -1 23 5 26 5 4 7 21 3 40 -3 21 -2 34 5 34 6 0 10 68 10 200 0 110 -4 200 -8 200 -4 0 -8 29 -8 65 1 37 -4 69 -10 73 -6 4 -11 23 -11 42 0 60 -40 210 -60 227 -8 6 -12 16 -9 22 8 13 -31 91 -45 91 -6 0 -8 8 -4 19 4 12 -4 29 -24 50 -17 18 -30 33 -31 34 0 1 -3 12 -6 25 -4 12 -13 22 -21 22 -8 0 -11 5 -8 10 9 15 -113 150 -136 150 -10 0 -19 7 -19 15 0 8 -6 15 -14 15 -8 0 -16 7 -20 15 -3 8 -15 15 -26 15 -25 0 -61 18 -75 37 -6 8 -28 16 -50 18 -22 2 -41 8 -43 14 -2 6 -14 8 -28 5 -15 -4 -24 -2 -24 5 0 7 -9 9 -25 5 -15 -4 -25 -2 -25 5 0 12 -181 16 -193 5z m258 -34 c82 -21 207 -77 247 -112 111 -95 205 -213 251 -313 32 -68 86 -210 91 -239 3 -15 9 -42 14 -59 33 -110 49 -468 30 -662 -15 -158 -80 -379 -152 -523 -115 -229 -283 -388 -466 -441 -25 -7 -56 -17 -69 -22 -48 -20 -203 -22 -300 -5 -285 50 -493 256 -607 604 -89 273 -95 738 -14 1032 32 114 99 277 142 350 87 142 224 276 333 325 102 45 160 63 225 72 19 3 37 7 39 9 13 12 167 1 236 -16z"></path><path id="p7oY0KO0E" d="M17315 11249 c-160 -11 -308 -35 -475 -78 -84 -21 -187 -55 -196 -64 -6 -5 -25 -779 -19 -785 8 -8 127 12 130 22 23 89 80 241 117 314 106 208 237 327 416 379 78 22 100 24 227 21 126 -4 148 -7 215 -34 61 -24 87 -42 145 -99 90 -90 118 -160 115 -295 -3 -173 -93 -317 -275 -440 -72 -49 -230 -134 -295 -160 -19 -7 -89 -40 -155 -72 -349 -172 -534 -373 -574 -628 -38 -237 26 -453 183 -619 71 -74 174 -145 266 -182 63 -26 88 -33 193 -60 27 -7 110 -12 190 -11 154 0 192 4 342 32 96 18 224 53 320 87 79 28 80 29 81 63 5 182 3 655 -3 655 -4 -1 -36 -4 -71 -9 l-62 -8 -16 -56 c-59 -214 -111 -326 -190 -411 -82 -89 -180 -138 -325 -161 -182 -29 -377 58 -450 203 -26 51 -49 137 -49 186 0 62 38 192 73 249 57 95 171 187 337 272 47 23 128 65 180 93 52 27 133 70 180 94 175 92 279 164 362 250 55 57 136 176 145 212 3 14 9 31 13 36 39 55 49 348 16 445 -62 183 -191 330 -386 442 -48 27 -197 83 -246 91 -16 3 -54 11 -86 17 -75 14 -225 18 -373 9z m240 -29 c4 -7 24 -8 50 -4 54 8 180 -13 200 -33 9 -8 22 -12 30 -9 16 6 65 -12 65 -24 0 -4 25 -15 55 -25 30 -9 53 -20 50 -24 -5 -9 38 -31 61 -31 8 0 12 -4 9 -10 -3 -5 2 -10 12 -10 25 0 168 -123 167 -143 -1 -9 3 -17 10 -17 15 -1 58 -69 50 -81 -3 -5 2 -9 10 -9 33 0 86 -204 86 -331 0 -67 -29 -200 -53 -243 -6 -12 -11 -24 -12 -27 0 -3 -13 -30 -29 -60 -34 -62 -167 -200 -241 -249 -45 -30 -76 -48 -195 -112 -60 -32 -281 -148 -375 -198 -116 -60 -251 -157 -305 -217 -85 -97 -126 -222 -116 -353 8 -107 20 -142 77 -215 27 -36 46 -65 43 -65 -4 0 27 -18 68 -40 138 -72 257 -87 400 -51 103 27 171 63 240 129 94 90 147 186 199 362 38 130 36 127 82 133 23 3 42 5 43 4 2 -3 7 -563 5 -607 -1 -32 -5 -37 -48 -56 -59 -26 -140 -54 -173 -61 -14 -2 -32 -7 -40 -10 -8 -3 -22 -5 -32 -4 -9 1 -19 -3 -23 -9 -3 -6 -11 -8 -16 -4 -6 3 -18 3 -27 -1 -9 -4 -37 -9 -62 -11 -25 -3 -52 -7 -60 -11 -8 -3 -32 -5 -52 -4 -21 2 -43 -1 -50 -5 -7 -4 -32 -7 -56 -5 -24 1 -50 -3 -58 -10 -10 -9 -18 -9 -22 -2 -7 10 -147 27 -214 26 -21 -1 -38 3 -38 7 0 10 -49 24 -72 21 -10 -1 -18 3 -18 8 0 6 -9 11 -19 11 -11 0 -23 5 -26 10 -3 6 -18 10 -32 10 -15 0 -23 3 -20 7 10 9 -25 32 -51 33 -13 0 -21 4 -17 9 6 11 -46 51 -67 51 -7 1 -25 19 -41 41 -15 22 -37 43 -50 48 -12 5 -20 11 -18 15 6 12 -33 76 -47 76 -7 0 -11 4 -8 9 3 5 -5 34 -19 64 -53 121 -75 267 -56 382 6 39 12 79 14 90 1 11 4 22 7 25 6 6 50 108 57 134 3 10 16 30 29 43 13 14 24 29 24 33 0 10 54 64 121 120 55 47 164 117 254 163 74 38 387 187 393 187 3 0 13 6 21 14 9 8 35 25 57 37 87 50 211 160 220 196 4 12 10 23 15 23 12 0 43 62 41 81 -2 9 4 19 13 23 11 4 14 13 9 31 -4 17 -2 27 8 30 12 5 15 29 14 121 -1 73 -5 117 -12 122 -7 4 -12 19 -12 33 1 33 -47 109 -69 109 -9 0 -13 3 -10 7 9 9 -22 43 -40 43 -7 0 -13 7 -13 15 0 15 -49 45 -75 45 -8 0 -23 8 -33 18 -27 27 -133 47 -242 46 -125 -2 -140 -3 -153 -11 -6 -4 -27 -8 -47 -10 -19 -2 -53 -13 -76 -23 -22 -11 -44 -20 -48 -20 -4 0 -36 -20 -70 -45 -70 -49 -132 -112 -192 -195 -42 -58 -135 -257 -156 -334 -7 -25 -16 -46 -20 -46 -4 0 -5 -6 -2 -13 7 -19 -21 -40 -58 -42 l-30 -3 6 357 c3 196 8 366 12 378 4 14 17 24 42 29 44 9 40 8 74 22 14 6 61 18 105 28 43 9 119 25 168 36 50 10 142 21 205 24 63 3 116 7 119 9 9 10 170 5 176 -5z"></path><path id="pYUsOfAGT" d="M6718 11204 c-4 -3 -181 -6 -395 -7 l-388 -2 -3 -67 -3 -68 48 0 c61 0 150 -24 183 -48 14 -10 35 -33 47 -51 l22 -32 -2 -1047 c-2 -1104 -1 -1084 -46 -1136 -32 -37 -135 -77 -232 -91 -46 -7 -47 -7 -53 -52 -3 -25 -6 -57 -6 -70 l0 -24 333 5 c182 3 474 6 647 7 339 1 426 9 646 57 43 9 113 32 204 65 72 26 254 117 258 128 2 5 8 9 13 9 6 0 35 19 67 43 201 150 313 295 416 538 31 73 66 238 76 366 35 411 -94 780 -364 1048 -97 96 -227 190 -342 248 -111 56 -314 120 -459 146 -140 25 -651 52 -667 35z m447 -38 c129 -9 220 -22 325 -47 171 -40 365 -115 377 -145 3 -8 14 -14 24 -14 25 0 100 -50 93 -61 -3 -5 2 -9 11 -9 23 0 77 -39 70 -51 -4 -5 0 -9 9 -9 8 0 26 -10 41 -22 197 -166 343 -424 391 -692 24 -128 24 -411 1 -531 -21 -110 -67 -265 -79 -265 -4 0 -8 -7 -8 -15 0 -9 -12 -39 -27 -67 -16 -28 -34 -62 -42 -77 -8 -14 -17 -28 -21 -31 -3 -3 -17 -21 -30 -40 -69 -101 -190 -215 -305 -288 -52 -33 -237 -125 -275 -137 -3 -1 -24 -7 -47 -13 -23 -7 -45 -17 -48 -22 -4 -6 -10 -8 -15 -5 -5 3 -11 1 -15 -4 -3 -6 -12 -8 -19 -5 -8 3 -17 0 -21 -5 -3 -6 -10 -9 -15 -6 -5 3 -21 0 -37 -7 -15 -6 -37 -12 -48 -13 -38 -1 -140 -18 -150 -23 -5 -4 -22 -5 -37 -3 -14 1 -29 -2 -32 -7 -3 -6 -272 -10 -671 -11 -735 -2 -684 -7 -650 59 11 21 24 30 43 32 32 1 42 3 62 10 8 4 36 11 61 18 64 17 112 59 128 112 7 24 19 50 27 59 13 14 14 167 12 1070 -3 1036 -3 1054 -23 1081 -11 15 -28 28 -38 28 -10 0 -16 4 -12 10 8 14 -53 42 -91 42 -19 0 -34 5 -34 10 0 7 -16 9 -43 5 -57 -8 -69 1 -65 49 l3 39 347 0 c190 0 349 2 351 5 8 8 407 5 522 -4z"></path><path id="pxBsGu1w1" d="M6946 11031 c-3 -5 -15 -7 -26 -4 -11 3 -28 2 -37 -2 -10 -4 -33 -9 -51 -11 -18 -2 -38 -7 -45 -11 -6 -4 -18 -8 -25 -9 -26 -4 -63 -36 -73 -61 -9 -25 -29 -305 -27 -383 1 -19 0 -132 -1 -250 -4 -348 10 -1584 18 -1592 4 -4 119 -9 256 -10 245 -2 252 -1 348 25 118 33 224 81 307 137 70 48 200 167 200 184 0 6 9 17 20 24 11 7 20 18 20 26 0 8 7 16 15 20 8 3 15 14 15 25 0 10 7 21 15 24 30 12 144 274 130 298 -3 4 -1 9 5 11 5 1 11 19 12 38 2 19 6 37 10 40 25 19 42 530 17 530 -6 0 -8 11 -4 29 3 16 -2 62 -13 107 -11 44 -23 92 -26 108 -5 20 -10 26 -17 19 -7 -7 -5 -28 6 -64 22 -70 45 -277 44 -404 0 -86 -18 -268 -32 -330 -34 -144 -69 -234 -141 -362 -53 -95 -181 -230 -283 -300 -48 -33 -163 -90 -218 -109 -129 -43 -214 -54 -448 -54 l-228 0 3 1101 3 1101 27 23 c55 47 126 60 333 59 145 0 207 -4 262 -17 222 -53 371 -150 505 -330 42 -56 119 -202 138 -261 10 -30 14 -36 21 -23 11 18 -5 67 -21 67 -6 0 -10 6 -8 13 5 24 -13 67 -27 67 -9 0 -15 9 -15 23 0 34 -54 114 -121 180 -32 31 -59 60 -59 62 0 3 -20 25 -45 49 -48 48 -142 106 -170 106 -10 0 -23 7 -29 16 -7 8 -32 18 -56 21 -25 3 -48 11 -52 16 -4 6 -24 11 -45 11 -21 0 -41 4 -45 10 -3 5 -43 9 -87 9 -45 0 -81 4 -81 8 0 12 -167 12 -174 0z"></path><path id="pHzo2O4ju" d="M8769 11196 c0 -1 -2 -31 -5 -68 l-4 -68 43 0 c66 0 154 -19 191 -41 70 -41 66 27 66 -1128 0 -697 3 -1041 10 -1041 7 0 9 348 8 1058 l-3 1057 -23 33 c-30 42 -76 65 -129 65 -24 0 -43 5 -43 10 0 5 -16 7 -37 4 -51 -8 -69 4 -64 45 1 18 8 36 14 40 14 8 1027 2 1050 -7 20 -8 23 -45 5 -63 -7 -7 -33 -12 -58 -12 -26 0 -50 -3 -53 -6 -4 -4 -23 -8 -43 -10 -20 -2 -43 -9 -52 -16 -8 -7 -16 -11 -16 -9 -1 2 -19 -5 -41 -17 -39 -20 -68 -48 -72 -69 -26 -132 -35 -857 -10 -866 10 -4 10 -6 0 -6 -18 -1 -16 -51 1 -51 13 0 15 56 14 393 0 215 3 424 7 462 7 61 12 74 40 100 39 37 133 66 233 73 l73 5 -3 65 -3 65 -547 1 c-302 2 -548 2 -549 2z"></path><path id="pQJ23IUa8" d="M10566 11177 c-21 -12 -58 -48 -82 -79 -46 -59 -144 -212 -144 -225 0 -3 -6 -14 -14 -22 -7 -9 -28 -43 -45 -75 -17 -33 -35 -64 -40 -70 -4 -6 -39 -69 -76 -141 -250 -476 -311 -539 -532 -554 -60 -3 -107 -11 -115 -19 -9 -9 1 -12 53 -12 161 1 248 31 330 115 47 49 119 148 119 165 0 5 4 10 9 12 11 4 161 280 161 297 0 8 6 19 14 25 7 6 33 49 57 96 24 47 65 120 91 162 27 43 48 84 48 93 0 8 4 15 9 15 5 0 19 16 31 35 12 20 27 41 33 48 7 6 25 29 40 50 54 71 47 70 360 71 155 1 290 0 300 -3 14 -3 18 -11 15 -32 -3 -16 -1 -29 4 -29 5 0 5 -8 -1 -17 -6 -12 -22 -18 -48 -19 -48 -1 -93 -22 -164 -78 -52 -41 -183 -192 -197 -226 -3 -8 -18 -31 -32 -50 -27 -34 -44 -61 -117 -190 -20 -36 -41 -66 -45 -68 -4 -2 -8 -8 -8 -14 0 -25 -158 -262 -240 -360 -55 -65 -126 -122 -183 -146 -48 -20 -25 -24 28 -5 109 40 254 214 420 505 6 10 44 73 85 140 207 339 325 457 477 478 29 3 54 9 56 11 2 2 -1 33 -7 69 l-11 65 -139 3 c-77 1 -142 -1 -145 -6 -3 -5 -41 -6 -84 -3 -43 4 -81 3 -83 -1 -7 -12 -44 -10 -44 2 0 19 -103 9 -144 -13z"></path><path id="p1DXJus8cc" d="M14269 11153 c0 -27 -2 -58 -5 -70 -4 -22 -1 -23 54 -23 80 0 160 -24 194 -57 19 -20 31 -45 38 -86 12 -61 8 -1996 -4 -2072 -3 -22 -3 -33 1 -25 3 8 11 18 17 22 16 11 22 2068 6 2068 -8 0 -9 10 -5 29 5 25 0 36 -37 74 -45 45 -71 54 -208 69 -21 3 -25 9 -28 43 l-3 40 373 0 c205 0 450 2 544 5 190 6 194 4 194 -55 l0 -35 -53 0 c-30 0 -57 -3 -61 -7 -4 -4 -32 -8 -63 -9 -30 -1 -60 -7 -65 -12 -6 -6 -16 -9 -22 -6 -6 2 -33 -9 -61 -24 -44 -23 -52 -33 -62 -72 -15 -58 -18 -840 -3 -840 6 0 10 130 11 368 1 202 3 386 5 410 5 60 29 105 61 118 63 26 142 42 243 50 41 3 80 7 85 8 6 2 9 31 7 70 l-4 66 -574 0 -574 0 -1 -47z"></path><path id="p8YsJUngS" d="M15087 10101 c-125 -18 -68 -26 175 -26 188 0 252 -3 255 -12 3 -8 15 -10 32 -7 30 6 141 -19 150 -35 4 -6 22 -12 41 -15 49 -6 133 -44 125 -56 -3 -5 1 -10 11 -10 24 0 85 -40 78 -51 -3 -5 4 -9 15 -9 12 0 21 -7 21 -15 0 -8 9 -15 19 -15 23 0 125 -115 116 -130 -3 -5 0 -10 7 -10 36 0 112 -173 133 -305 8 -49 15 -115 15 -145 0 -56 -26 -226 -38 -245 -3 -5 -8 -19 -9 -29 -7 -41 -61 -123 -126 -189 -56 -57 -86 -77 -175 -120 -59 -28 -116 -53 -126 -54 -11 -2 -25 -8 -31 -13 -7 -5 -14 -7 -17 -5 -3 3 -18 0 -34 -6 -16 -6 -47 -13 -69 -15 -21 -3 -43 -8 -48 -13 -5 -5 -16 -7 -23 -4 -8 3 -22 2 -31 -2 -10 -4 -32 -7 -49 -6 -18 1 -35 -2 -38 -7 -3 -5 -260 -10 -613 -11 l-609 -2 4 40 c5 49 15 58 72 63 53 5 160 51 188 82 11 11 22 35 26 51 5 27 4 28 -7 10 -40 -63 -127 -110 -228 -122 -26 -3 -52 -9 -58 -12 -6 -4 -14 -37 -18 -74 l-6 -66 574 5 c635 5 841 18 911 55 10 5 26 9 36 9 30 0 130 37 214 80 94 47 94 48 177 130 121 120 171 263 171 484 0 319 -158 567 -465 728 -54 28 -150 60 -255 84 -75 18 -403 27 -493 15z"></path><path id="pKsvvUb4J" d="M15100 9963 c-14 -2 -32 -7 -40 -10 -8 -3 -24 -6 -34 -7 -11 -1 -21 -7 -24 -15 -3 -9 1 -11 14 -7 44 13 106 19 224 19 109 0 135 -3 198 -26 196 -69 308 -207 353 -437 35 -180 11 -378 -63 -510 -96 -173 -296 -261 -553 -246 -60 3 -119 8 -130 10 -20 3 -20 12 -23 590 -1 385 -6 585 -12 581 -16 -10 -13 -1182 3 -1192 6 -4 86 -9 175 -11 148 -4 171 -2 240 18 91 27 171 65 179 85 3 8 11 15 17 15 12 0 76 61 76 73 0 3 11 17 25 31 14 14 25 32 25 41 0 8 5 15 11 15 5 0 7 5 4 10 -3 6 -1 10 4 10 6 0 14 18 17 40 4 22 11 40 16 40 6 0 8 9 5 20 -3 10 0 21 6 23 6 2 10 36 11 80 0 42 4 77 8 77 13 0 9 28 -4 33 -10 4 -9 8 2 16 9 6 10 11 3 11 -7 0 -11 23 -10 71 1 39 -4 73 -9 77 -6 4 -10 23 -10 42 0 42 -71 200 -90 200 -8 0 -11 6 -8 15 4 8 1 15 -4 15 -6 0 -19 13 -28 30 -10 16 -27 30 -38 32 -12 2 -21 10 -21 18 0 8 -10 16 -22 18 -13 2 -23 9 -23 16 0 19 -108 70 -146 69 -19 -1 -34 3 -34 8 0 5 -11 7 -25 3 -15 -4 -25 -2 -25 5 0 11 -181 14 -240 4z"></path><path id="pqokm5rUc" d="M10136 9882 c-3 -5 13 -12 37 -16 57 -9 166 -46 199 -68 14 -10 31 -18 37 -18 25 0 140 -78 192 -131 80 -81 104 -115 139 -197 64 -150 59 -371 -12 -522 -53 -113 -115 -183 -217 -249 -35 -22 -67 -41 -71 -41 -4 0 -24 -7 -44 -15 -20 -8 -39 -16 -43 -16 -5 -1 -17 -6 -28 -12 -11 -6 -22 -12 -25 -12 -37 -6 -87 -18 -95 -23 -11 -7 -12 -7 -120 -17 -44 -3 -87 -9 -95 -12 -8 -3 -57 -5 -108 -3 -61 1 -98 -3 -107 -10 -12 -10 -15 -10 -15 0 0 10 -42 11 -190 6 -121 -3 -190 -2 -190 4 0 6 -118 10 -321 10 l-320 0 3 42 3 42 96 17 c100 17 142 34 173 67 27 31 15 46 -16 18 -31 -30 -96 -52 -198 -69 l-75 -13 -5 -63 c-3 -34 -1 -65 3 -68 4 -3 139 -3 300 -1 161 1 420 -1 577 -6 389 -12 606 12 775 84 180 76 268 147 350 279 66 106 79 165 79 341 0 145 -2 159 -27 225 -64 162 -180 285 -348 368 -130 64 -277 104 -293 79z"></path><path id="p66hSeEyv" d="M9504 9838 c-7 -10 -19 -9 141 -12 204 -4 327 -31 434 -93 51 -30 75 -52 111 -106 26 -37 55 -91 65 -119 15 -42 20 -47 28 -33 7 13 0 36 -29 92 -22 42 -47 78 -56 82 -9 3 -16 8 -15 11 3 10 -40 60 -52 60 -6 0 -11 5 -11 10 0 6 -10 10 -22 10 -12 0 -18 3 -15 7 11 10 -26 32 -54 33 -15 0 -30 7 -33 16 -4 10 -13 13 -26 9 -12 -4 -26 0 -35 9 -12 12 -27 14 -60 9 -32 -4 -45 -2 -45 6 0 9 -10 11 -30 6 -16 -4 -30 -2 -30 3 0 11 -260 10 -266 0z"></path><path id="p1HQN2tixq" d="M9490 9711 c0 -70 4 -101 13 -104 10 -4 10 -6 0 -6 -15 -1 -18 -31 -3 -31 6 0 10 -7 10 -15 0 -8 -6 -15 -12 -15 -10 0 -9 -3 1 -9 9 -6 10 -10 2 -12 -18 -6 -16 -743 1 -747 10 -2 14 95 16 490 1 270 0 505 -3 520 -13 58 -25 24 -25 -71z"></path><path id="p7pgx32CU" d="M10280 9440 c0 -8 5 -33 10 -55 10 -44 14 -250 5 -305 -14 -85 -63 -182 -120 -236 -47 -46 -149 -92 -240 -109 -87 -16 -302 -20 -375 -5 -52 10 -71 3 -45 -17 13 -9 50 -13 111 -13 56 0 94 -4 96 -11 2 -7 17 -7 48 0 25 6 67 11 94 11 61 0 155 24 226 58 59 28 150 106 150 128 0 8 9 23 20 34 11 11 17 26 14 35 -4 9 1 21 10 28 19 14 46 148 46 229 0 84 -20 211 -36 228 -12 13 -14 13 -14 0z"></path><path id="pKR3l2RYH" d="M9042 8785 c-6 -13 -8 -27 -3 -29 7 -5 31 34 31 49 0 15 -18 1 -28 -20z"></path></g></g></svg>
